Coordinates
version=1
nRows=17
nColumns=24
inDegrees=yes

Units are S.I. units (second, meters, Newtons, ...)
Angles are in degrees.

endheader
time	pelvis_tilt	pelvis_list	pelvis_rotation	pelvis_tx	pelvis_ty	pelvis_tz	hip_flexion_r	hip_adduction_r	hip_rotation_r	knee_angle_r	ankle_angle_r	subtalar_angle_r	mtp_angle_r	hip_flexion_l	hip_adduction_l	hip_rotation_l	knee_angle_l	ankle_angle_l	subtalar_angle_l	mtp_angle_l	lumbar_extension	lumbar_bending	lumbar_rotation
      1.13383333	     -1.15807490	      5.17738848	     -1.49010174	      0.13634638	      0.90531137	      0.33104498	     19.48401364	     -8.98844130	     -7.40407112	    -76.13341496	      0.37873222	      5.96088941	     10.43454839	     11.12958310	      9.36895594	     -3.21717550	    -19.80596913	     11.87483886	     -6.95393119	      1.46380494	     -7.14700014	     -7.72713731	      0.97051276
      1.13800000	     -1.23097067	      4.97502189	     -1.37840831	      0.14161836	      0.90629260	      0.33082731	     20.22664629	     -8.68798283	     -7.44855055	    -75.88508145	      0.74432565	      5.55751767	     10.33867143	     10.54782533	      9.19691542	     -3.01706024	    -19.26068801	     11.87038959	     -6.90149781	      1.46031484	     -7.13160534	     -7.45897346	      0.81407844
      1.14216667	     -1.29836941	      4.77392613	     -1.27208321	      0.14693694	      0.90727226	      0.33062379	     20.93714267	     -8.38567374	     -7.48499474	    -75.55018462	      1.10972511	      5.27773016	     10.25111199	      9.94390574	      9.02113798	     -2.83413090	    -18.68080391	     11.87890335	     -6.82451478	      1.45794059	     -7.08367832	     -7.21042727	      0.67786795
      1.14633333	     -1.35745354	      4.56343339	     -1.16049091	      0.15226020	      0.90824857	      0.33042586	     21.61195029	     -8.06857500	     -7.52658185	    -75.13026675	      1.46359586	      5.02400755	     10.15620693	      9.32804180	      8.83310492	     -2.64502114	    -18.09307408	     11.87848764	     -6.75429536	      1.45511846	     -7.04732367	     -6.95161233	      0.53404523
      1.15050000	     -1.39285663	      4.34727050	     -1.04079994	      0.15758733	      0.90924099	      0.33021056	     22.23317808	     -7.75155524	     -7.58279476	    -74.62670180	      1.76553431	      4.79356877	      9.99442993	      8.67497254	      8.64230364	     -2.42187355	    -17.47841154	     11.88996513	     -6.72793320	      1.45012572	     -7.03510189	     -6.68195364	      0.33260495
      1.15466667	     -1.43477556	      4.13006792	     -0.92191934	      0.16290008	      0.91018420	      0.33001177	     22.84344130	     -7.42508813	     -7.62752641	    -74.05708571	      2.12233624	      4.61284916	      9.83826236	      8.03923258	      8.44163498	     -2.23023152	    -16.87717754	     11.87049159	     -6.66716557	      1.44499700	     -7.02038593	     -6.41193362	      0.18262242
      1.15883333	     -1.46875750	      3.90890634	     -0.80028597	      0.16820024	      0.91110573	      0.32981612	     23.42210114	     -7.09314190	     -7.67294407	    -73.41325076	      2.46697250	      4.45821472	      9.70090290	      7.39870167	      8.23257766	     -2.04561963	    -16.27728209	     11.85121236	     -6.59636001	      1.44075875	     -7.01641504	     -6.13738349	      0.04154421
      1.16300000	     -1.51783821	      3.68512824	     -0.67338969	      0.17348149	      0.91196172	      0.32963394	     23.99698498	     -6.75348156	     -7.71324994	    -72.70324330	      2.83925384	      4.33614041	      9.62775246	      6.79019852	      8.01129362	     -1.89213070	    -15.70143913	     11.80360909	     -6.49437723	      1.43840100	     -6.99145744	     -5.86772166	     -0.06324246
      1.16716667	     -1.50183746	      3.45984003	     -0.54164357	      0.17878160	      0.91288992	      0.32942015	     24.46964256	     -6.42837644	     -7.77776918	    -71.91352199	      3.11829271	      4.20576606	      9.48606867	      6.08455483	      7.79789411	     -1.67566820	    -15.07065079	     11.79785129	     -6.46696409	      1.43464863	     -7.04984888	     -5.58233656	     -0.26601671
      1.17133333	     -1.50982473	      3.23454386	     -0.40584251	      0.18405418	      0.91373059	      0.32921883	     24.95050501	     -6.09817123	     -7.83353658	    -71.06353734	      3.43105424	      4.11063445	      9.36175383	      5.42466177	      7.57526408	     -1.48958165	    -14.47042867	     11.75870705	     -6.41194251	      1.43127401	     -7.07551887	     -5.30128251	     -0.42629285
      1.17550000	     -1.50394701	      3.01376423	     -0.26720577	      0.18931732	      0.91454136	      0.32901616	     25.39507250	     -5.77729402	     -7.89233978	    -70.15197232	      3.72492691	      4.01956509	      9.22978033	      4.75130659	      7.35433787	     -1.30146541	    -13.86723140	     11.71754583	     -6.36459002	      1.42878436	     -7.11850427	     -5.02622624	     -0.59788214
      1.17966667	     -1.51435806	      2.78592900	     -0.12133081	      0.19454250	      0.91527943	      0.32883067	     25.83589753	     -5.44285134	     -7.94541691	    -69.17509773	      4.02093137	      3.94648395	      9.14709682	      4.12130110	      7.11694733	     -1.14272614	    -13.30655395	     11.65632748	     -6.28843621	      1.42707494	     -7.14624070	     -4.75257964	     -0.72996290
      1.18383333	     -1.50029651	      2.56819285	      0.02332673	      0.19977991	      0.91599530	      0.32861976	     26.23042214	     -5.13474309	     -8.01314052	    -68.14563882	      4.28576684	      3.86311946	      9.07397402	      3.45557996	      6.89027891	     -0.98388727	    -12.72232241	     11.60959568	     -6.21812596	      1.42641190	     -7.19155920	     -4.45492942	     -0.88059067
      1.18800000	     -1.46855080	      2.35460074	      0.17050290	      0.20499940	      0.91668535	      0.32843077	     26.58455389	     -4.82875887	     -8.07615252	    -67.05641582	      4.50553930	      3.77156496	      8.99627302	      2.77409816	      6.66436601	     -0.80669570	    -12.14039101	     11.56977628	     -6.16653232	      1.42637983	     -7.27424547	     -4.19463593	     -1.05441640
      1.19216667	     -1.43552071	      2.15464135	      0.32036671	      0.21020294	      0.91730995	      0.32822913	     26.91946594	     -4.54235458	     -8.13619755	    -65.91758967	      4.70055907	      3.67776858	      8.91710774	      2.10235973	      6.45108986	     -0.63158346	    -11.57643714	     11.53149191	     -6.12217679	      1.42741827	     -7.35196109	     -3.95331615	     -1.23524393
      1.19633333	     -1.39556270	      1.95621892	      0.47454258	      0.21539222	      0.91788918	      0.32803036	     27.22587193	     -4.26255627	     -8.20386934	    -64.72436187	      4.87281958	      3.57069494	      8.83853667	      1.42796015	      6.23493789	     -0.45958551	    -11.01502165	     11.48817113	     -6.07830694	      1.42910924	     -7.43786655	     -3.70266661	     -1.41677856
      1.20050000	     -1.32776645	      1.78425482	      0.62241372	      0.22057712	      0.91843151	      0.32782725	     27.49044839	     -4.01677902	     -8.26543482	    -63.49670128	      4.98376577	      3.42469222	      8.71441323	      0.70907128	      6.04909034	     -0.25573402	    -10.42133665	     11.47171167	     -6.07989029	      1.43349734	     -7.56196385	     -3.47820880	     -1.65465627
